<svg xmlns="http://www.w3.org/2000/svg" aria-hidden="true" focusable="false" data-prefix="fas" data-icon="pause" role="img"  viewBox="-10 -50 532 532"><g class="currentLayer" style=""><title>Layer 1</title><path fill="#9e9dac" d="M79.41667493854118,321.9309196015731 H26.472225452883677 c-14.614874076770038,0 -26.472224742828743,-15.278935923445038 -26.472224742828743,-34.11111275931916 V37.67164660724677 c0,-18.83217683587412 11.857350666058709,-34.11111275931916 26.472224742828743,-34.11111275931916 h52.944449485657486 c14.614874076770038,0 26.472224742828743,15.278935923445038 26.472224742828743,34.11111275931916 v250.14816023500717 c0,18.83217683587412 -11.857350666058709,34.11111275931916 -26.472224742828743,34.11111275931916 zm167.65742337124868,-34.11111275931916 V37.67164660724677 c0,-18.83217683587412 -11.857350666058709,-34.11111275931916 -26.472224742828743,-34.11111275931916 h-52.944449485657486 c-14.614874076770038,0 -26.472224742828743,15.278935923445038 -26.472224742828743,34.11111275931916 v250.14816023500717 c0,18.83217683587412 11.857350666058709,34.11111275931916 26.472224742828743,34.11111275931916 h52.944449485657486 c14.614874076770038,0 26.472224742828743,-15.278935923445038 26.472224742828743,-34.11111275931916 z" id="svg_1" class=""/><path fill="#9e9dac" d="M510.680986579105,135.08690266377843 L318.7383421126137,4.1330964567410575 C303.1430022497113,-6.501787372662719 279.2592300121194,3.8184549233267546 279.2592300121194,30.12248711676341 V291.96717122415515 c0,23.59811500607352 22.193368266438064,37.819912316400504 39.47911210049425,25.989390660022313 l191.94264446649134,-130.8908779003545 c17.122156352976784,-11.641736736329607 17.176685513336583,-40.337044583715006 0,-51.978781320044625 z"/></g></svg>