<svg height="512" viewBox="0 0 59 59" width="512" xmlns="http://www.w3.org/2000/svg"><g id="009---Remote-Control"><path id="Shape" style="fill : #2fe6e2" d="m31.69 33.43c2.7167492.0023896 5.0961015-1.8209736 5.8002432-4.4448861.7041416-2.6239125-.4426564-5.3935379-2.7955959-6.7516277-2.3529395-1.3580899-5.3248094-.9657126-7.2446473.9565138-1.7137624 1.7158946-2.2260656 4.2947366-1.2982958 6.5353881.9277697 2.2406515 3.1131626 3.7024788 5.5382958 3.7046119zm-2.83-8.83c1.562556-1.5608186 4.0944069-1.5598797 5.6558049.0020974s1.561398 4.0938281 0 5.6558052-4.0932489 1.562916-5.6558049.0020974c-.7511082-.750273-1.1731466-1.768363-1.1731466-2.83s.4220384-2.079727 1.1731466-2.83z"/><path style="fill : #2fe6e2" id="Shape" d="m33.1 28.85c.7804093-.781278.7799399-2.0472035-.0010487-2.8279024-.7809885-.780699-2.0469141-.780699-2.8279026 0-.7809886.7806989-.781458 2.0466244-.0010487 2.8279024.3751365.3755541.8841815.5865733 1.415.5865733s1.0398635-.2110192 1.415-.5865733z"/><path style="fill : #2fe6e2" id="Shape" d="m33.1 16.12c.2872316-.2855277.3738792-.7161112.2194478-1.090516-.1544315-.3744049-.519444-.6186913-.9244478-.6186913s-.7700163.2442864-.9244478.6186913c-.1544314.3744048-.0677838.8049883.2194478 1.090516.3900375.3877236 1.0199625.3877236 1.41 0z"/><path style="fill : #2fe6e2" id="Shape" d="m21.79 57.13 27.58-27.58c1.5575332-1.5613099 1.5575332-4.0886901 0-5.65l-14.15-14.14c-1.5613099-1.5575332-4.0886901-1.5575332-5.65 0l-27.57 27.57c-3.52 3.51-1.94 10.8 3.53 16.27s12.75 7.04 16.26 3.53zm-6.36-9.19c-.1877666.1893127-.4433625.2957983-.71.2957983s-.5222334-.1064856-.71-.2957983l-2.83-2.83c-.3877236-.3900375-.3877236-1.0199625 0-1.41.1877666-.1893127.4433625-.2957983.71-.2957983s.5222334.1064856.71.2957983l2.83 2.82c.1893127.1877666.2957983.4433625.2957983.71s-.1064856.5222334-.2957983.71zm2.82-4.24c.2801197.2857003.3629755.7108712.210632 1.0808485-.1523436.3699772-.5105568.6135314-.910632.6191515-.265803.0015368-.5212812-.1028135-.71-.29l-2.84-2.83c-.3877236-.3900375-.3877236-1.0199625 0-1.41.1877666-.1893127.4433625-.2957983.71-.2957983s.5222334.1064856.71.2957983zm-1.41-5.7c.3900375-.3877236 1.0199625-.3877236 1.41 0l2.83 2.83c.2871614.2848091.3744903.714552.2212679 1.0888524s-.5168238.6194518-.9212679.6211476c-.2672459-.0011094-.5229286-.1091444-.71-.3l-2.83-2.83c-.3877236-.3900375-.3877236-1.0199625 0-1.41zm3.54 14.85c-.1877666.1893127-.4433625.2957983-.71.2957983s-.5222334-.1064856-.71-.2957983l-2.83-2.83c-.3877236-.3900375-.3877236-1.0199625 0-1.41.1877666-.1893127.4433625-.2957983.71-.2957983s.5222334.1064856.71.2957983l2.83 2.82c.2019503.1890717.3165529.4533557.3165529.73s-.1146026.5409283-.3165529.73zm2.82-2.83c-.3900375.3877236-1.0199625.3877236-1.41 0l-2.79-2.79c-.3877236-.3900375-.3877236-1.0199625 0-1.41.1877666-.1893127.4433625-.2957983.71-.2957983s.5222334.1064856.71.2957983l2.82 2.83c.3768813.4009522.3590059 1.0310588-.04 1.41zm7.07-6.02h-2.82c-.5522847 0-1-.4477153-1-1v-2.84c0-.5522847.4477153-1 1-1s1 .4477153 1 1v1.84h1.82c.5522847 0 1 .4477153 1 1s-.4477153 1-1 1zm3.13-3.12c0 .5522847-.4477153 1-1 1s-1-.4477153-1-1v-1.88h-1.83c-.5522847 0-1-.4477153-1-1s.4477153-1 1-1h2.83c.5522847 0 1 .4477153 1 1zm8.19-16.28c1.1884135-1.1276288 3.0515865-1.1276288 4.24 0 .8587681.8577 1.1161198 2.1483463.6519956 3.2698278-.4641241 1.1214815-1.5582691 1.8528121-2.7719956 1.8528121s-2.3078715-.7313306-2.7719956-1.8528121c-.4641242-1.1214815-.2067725-2.4121278.6519956-3.2698278zm-11.32-11.31c.9590452-.9602312 2.4432856-1.1570311 3.6194321-.4799113 1.1761464.6771197 1.7512374 2.0594981 1.4024027 3.3710339s-1.5347052 2.2255437-2.8918348 2.2288774c-1.2143869.002983-2.3107885-.7264466-2.7772397-1.8476815-.4664513-1.1212349-.2109333-2.4130842.6472397-3.2723185zm-4.27 8.49c2.558394-2.5645968 6.5208112-3.0900161 9.659174-1.2808131s4.6693688 5.5014701 3.7321293 9.0006298c-.9372396 3.4991597-4.1087995 5.9318584-7.7313033 5.9301833-3.2332615-.0014951-6.1477574-1.949085-7.3861908-4.9357663s-.5573007-6.4252058 1.7261908-8.7142337zm-2.8 21.22 2.8 2.82c.2853762.2443899.4096819.6281184.3218101.993419-.0878718.3653005-.3730906.6505193-.7383911.7383911-.3653006.0878718-.7490291-.0364339-.993419-.3218101l-2.8-2.83c-.3003057-.2402742-.4362054-.6314805-.3495349-1.006185.0866706-.3747045.3805513-.6665009.7558632-.7505024.3753118-.0840014.7655409.0546792 1.0036717.3566874zm-4.95-17.27h2.83c.5522847 0 1 .4477153 1 1v2.82c0 .5522847-.4477153 1-1 1s-1-.4477153-1-1v-1.82h-1.83c-.5522847 0-1-.4477153-1-1s.4477153-1 1-1zm-3.12 3.12c0-.5522847.4477153-1 1-1s1 .4477153 1 1v1.83h1.87c.5522847 0 1 .4477153 1 1s-.4477153 1-1 1h-2.87c-.5522847 0-1-.4477153-1-1zm-3.24 4.24c.3900375-.3877236 1.0199625-.3877236 1.41 0l2.83 2.83c.2871614.2848091.3744903.714552.2212679 1.0888524s-.5168238.6194518-.9212679.6211476c-.2672459-.0011094-.5229286-.1091444-.71-.3l-2.83-2.83c-.3877236-.3900375-.3877236-1.0199625 0-1.41zm-2.83 2.83c.1877666-.1893127.44336246-.2957983.71-.2957983.2666375 0 .5222334.1064856.71.2957983l2.82 2.83c.2801197.2857003.3629755.7108712.210632 1.0808485-.1523436.3699772-.5105568.6135314-.910632.6191515-.265803.0015368-.5212812-.1028135-.71-.29l-2.83-2.83c-.38772359-.3900375-.38772359-1.0199625 0-1.41zm-2.83 2.83c.1877666-.1893127.44336246-.2957983.71-.2957983s.5222334.1064856.71.2957983l2.83 2.83c.2813286.2870058.363505.7145455.208621 1.0853946-.1548841.3708491-.5167313.6129438-.918621.6146054-.26580298.0015368-.52128117-.1028135-.71-.29l-2.83-2.83c-.38772359-.3900375-.38772359-1.0199625 0-1.41z"/><path style="fill : #2fe6e2" id="Shape" d="m44.42 27.43c.3881684-.3913645.3864418-1.0230375-.0038603-1.4122742-.390302-.3892366-1.0219774-.3892366-1.4122794 0-.3903021.3892367-.3920287 1.0209097-.0038603 1.4122742.1877666.1893127.4433625.2957983.71.2957983s.5222334-.1064856.71-.2957983z"/><path style="fill : #2fe6e2" id="Shape" d="m41.86.17c-.2643709.03475942-.5039111.1736632-.6653971.38584823-.1614859.21218503-.2315422.48007662-.1946029.74415177.0773971.54671633.5832605.92723305 1.13.85 4.0530931-.58311228 8.1440323.77751034 11.0404938 3.67200415 2.8964615 2.89449382 4.259864 6.98450735 3.6795062 11.03799585-.0500172.3572656.0943639.7140765.3787564.9360254.2843925.221949.6655904.2753167 1.0000001.1400001.3344096-.1353167.5712263-.4387599.6212435-.7960255.6689714-4.677683-.9053216-9.39713369-4.248564-12.7364406-3.3432425-3.33930691-8.0645442-4.90803993-12.741436-4.2335594z"/><path style="fill : #2fe6e2" id="Shape" d="m42.43 4.13c-.5467163.07739707-.9272331.58326047-.85 1.13.0773971.54671633.5832605.92723305 1.13.85 2.8035074-.39962559 5.6316086.54355569 7.6340265 2.54597352 2.0024178 2.00241788 2.9455991 4.83051908 2.5459735 7.63402648-.0500172.3572656.0943639.7140765.3787564.9360254.2843925.221949.6655904.2753167 1.0000001.1400001.3344096-.1353167.5712263-.4387599.6212435-.7960255.4889918-3.4296896-.6662991-6.88934179-3.1179479-9.3370554-2.4516488-2.4477136-5.9131524-3.59744535-9.3420521-3.1029446z"/><path style="fill : #2fe6e2" id="Shape" d="m49.78 16.86c.2640752.0369393.5319667-.033117.7441518-.1946029.212185-.161486.3510888-.4010262.3858482-.6653971.3075176-2.1777208-.4263292-4.3733541-1.9814876-5.9285124-1.5551583-1.5551584-3.7507916-2.28900521-5.9285124-1.9814876-.5467163.07739707-.9272331.58326047-.85 1.13.0773971.54671633.5832605.9272331 1.13.85 1.5590957-.22390827 3.1325542.2999295 4.2463124 1.4136876 1.1137581 1.1137582 1.6375959 2.6872167 1.4136876 4.2463124-.0775603.5433631.2973364 1.0476883.84 1.13z"/></g></svg>